<svg xmlns="http://www.w3.org/2000/svg" width="1400" height="920" viewBox="0 0 1400 920">
  <rect width="1400" height="920" fill="#ffffff"/>
  <text x="40" y="48" font-family="Arial, Helvetica, sans-serif" font-size="28" font-weight="700" fill="#111827">ScalerOne - Exact palette swatches</text>
  <text x="40" y="78" font-family="Arial, Helvetica, sans-serif" font-size="14" fill="#6b7280">Grill Q6 tokens - A / B / D / E - hex-accurate</text>

  <g transform="translate(40,110)">
    <rect width="300" height="760" rx="16" fill="#ffffff" stroke="#e5e7eb"/>
    <text x="20" y="36" font-family="Arial, Helvetica, sans-serif" font-size="18" font-weight="700" fill="#111827">A - Slate Glass</text>
    <rect x="20" y="56" width="260" height="100" rx="10" fill="#F4F4F6" stroke="#e5e7eb"/>
    <text x="28" y="175" font-family="Menlo, monospace" font-size="13" fill="#374151">BG  #F4F4F6</text>
    <rect x="20" y="190" width="260" height="100" rx="10" fill="#FFFFFF" stroke="#e5e7eb"/>
    <text x="28" y="309" font-family="Menlo, monospace" font-size="13" fill="#374151">Surface  #FFFFFF</text>
    <rect x="20" y="324" width="260" height="100" rx="10" fill="#2C2F33"/>
    <text x="28" y="443" font-family="Menlo, monospace" font-size="13" fill="#374151">Text  #2C2F33</text>
    <rect x="20" y="458" width="260" height="100" rx="10" fill="#5C6B89"/>
    <text x="28" y="577" font-family="Menlo, monospace" font-size="13" fill="#374151">Accent  #5C6B89</text>
    <rect x="20" y="592" width="260" height="100" rx="10" fill="#C5CDDA"/>
    <text x="28" y="711" font-family="Menlo, monospace" font-size="13" fill="#374151">Soft  #C5CDDA</text>
  </g>

  <g transform="translate(370,110)">
    <rect width="300" height="760" rx="16" fill="#ffffff" stroke="#e5e7eb"/>
    <text x="20" y="36" font-family="Arial, Helvetica, sans-serif" font-size="18" font-weight="700" fill="#111827">B - Earthy Campus</text>
    <rect x="20" y="56" width="260" height="100" rx="10" fill="#EBE8E2" stroke="#e5e7eb"/>
    <text x="28" y="175" font-family="Menlo, monospace" font-size="13" fill="#374151">BG  #EBE8E2</text>
    <rect x="20" y="190" width="260" height="100" rx="10" fill="#F7F4EE" stroke="#e5e7eb"/>
    <text x="28" y="309" font-family="Menlo, monospace" font-size="13" fill="#374151">Surface  #F7F4EE</text>
    <rect x="20" y="324" width="260" height="100" rx="10" fill="#1A1A1A"/>
    <text x="28" y="443" font-family="Menlo, monospace" font-size="13" fill="#374151">Text  #1A1A1A</text>
    <rect x="20" y="458" width="260" height="100" rx="10" fill="#7B8E7A"/>
    <text x="28" y="577" font-family="Menlo, monospace" font-size="13" fill="#374151">Accent  #7B8E7A</text>
    <rect x="20" y="592" width="260" height="100" rx="10" fill="#A47764"/>
    <text x="28" y="711" font-family="Menlo, monospace" font-size="13" fill="#374151">Terracotta  #A47764</text>
  </g>

  <g transform="translate(700,110)">
    <rect width="300" height="760" rx="16" fill="#ffffff" stroke="#e5e7eb"/>
    <text x="20" y="36" font-family="Arial, Helvetica, sans-serif" font-size="18" font-weight="700" fill="#111827">D - Academic Blue</text>
    <rect x="20" y="56" width="260" height="100" rx="10" fill="#F7F9FC" stroke="#e5e7eb"/>
    <text x="28" y="175" font-family="Menlo, monospace" font-size="13" fill="#374151">BG  #F7F9FC</text>
    <rect x="20" y="190" width="260" height="100" rx="10" fill="#FFFFFF" stroke="#e5e7eb"/>
    <text x="28" y="309" font-family="Menlo, monospace" font-size="13" fill="#374151">Surface  #FFFFFF</text>
    <rect x="20" y="324" width="260" height="100" rx="10" fill="#1B2430"/>
    <text x="28" y="443" font-family="Menlo, monospace" font-size="13" fill="#374151">Text  #1B2430</text>
    <rect x="20" y="458" width="260" height="100" rx="10" fill="#4A90E2"/>
    <text x="28" y="577" font-family="Menlo, monospace" font-size="13" fill="#374151">Accent  #4A90E2</text>
    <rect x="20" y="592" width="260" height="100" rx="10" fill="#D8DADF"/>
    <text x="28" y="711" font-family="Menlo, monospace" font-size="13" fill="#374151">Muted  #D8DADF</text>
  </g>

  <g transform="translate(1030,110)">
    <rect width="300" height="760" rx="16" fill="#ffffff" stroke="#e5e7eb"/>
    <text x="20" y="36" font-family="Arial, Helvetica, sans-serif" font-size="18" font-weight="700" fill="#111827">E - Mist Teal</text>
    <rect x="20" y="56" width="260" height="100" rx="10" fill="#EEF3F6" stroke="#e5e7eb"/>
    <text x="28" y="175" font-family="Menlo, monospace" font-size="13" fill="#374151">BG  #EEF3F6</text>
    <rect x="20" y="190" width="260" height="100" rx="10" fill="#FFFFFF" stroke="#e5e7eb"/>
    <text x="28" y="309" font-family="Menlo, monospace" font-size="13" fill="#374151">Surface  #FFFFFF</text>
    <rect x="20" y="324" width="260" height="100" rx="10" fill="#14202A"/>
    <text x="28" y="443" font-family="Menlo, monospace" font-size="13" fill="#374151">Text  #14202A</text>
    <rect x="20" y="458" width="260" height="100" rx="10" fill="#0D9488"/>
    <text x="28" y="577" font-family="Menlo, monospace" font-size="13" fill="#374151">Accent  #0D9488</text>
    <rect x="20" y="592" width="260" height="100" rx="10" fill="#99D5CF"/>
    <text x="28" y="711" font-family="Menlo, monospace" font-size="13" fill="#374151">Soft  #99D5CF</text>
  </g>
</svg>
